<svg width="18" height="16" viewBox="0 0 18 16" fill="none" xmlns="http://www.w3.org/2000/svg">
<path d="M9.00039 15.7062C8.66289 15.7062 8.29727 15.5937 8.04414 15.3405C7.39727 14.778 6.75039 14.2437 6.18789 13.7655C4.52852 12.3593 3.09414 11.1499 2.08164 9.94053C0.900391 8.53428 0.337891 7.18428 0.337891 5.69365C0.337891 4.23115 0.844141 2.88115 1.77227 1.89678C2.70039 0.884278 3.99414 0.321777 5.40039 0.321777C6.44102 0.321777 7.42539 0.659277 8.26914 1.30615C8.52227 1.50303 8.77539 1.72803 9.00039 1.98115C9.22539 1.72803 9.47852 1.50303 9.73164 1.30615C10.5754 0.659277 11.5316 0.321777 12.6004 0.321777C14.0066 0.321777 15.2723 0.884278 16.2285 1.89678C17.1566 2.88115 17.6629 4.23115 17.6629 5.69365C17.6629 7.18428 17.1004 8.53428 15.9191 9.94053C14.9066 11.1499 13.4723 12.3593 11.8129 13.7655C11.2504 14.2437 10.6035 14.778 9.95664 15.3405C9.70352 15.5655 9.33789 15.7062 9.00039 15.7062ZM5.40039 1.27803C4.27539 1.27803 3.23477 1.72803 2.50352 2.54365C1.74414 3.35928 1.35039 4.45615 1.35039 5.66553C1.35039 6.90303 1.82852 8.05615 2.84102 9.29365C3.79727 10.4468 5.20352 11.628 6.83477 13.0062C7.39727 13.4843 8.04414 14.0187 8.69102 14.6093C8.85977 14.7499 9.14102 14.7499 9.30977 14.6093C9.98477 14.0468 10.6035 13.4843 11.166 13.0062C12.7973 11.628 14.2035 10.4468 15.1598 9.29365C16.1723 8.05615 16.6504 6.90303 16.6504 5.66553C16.6504 4.45615 16.2285 3.35928 15.4973 2.54365C14.7379 1.72803 13.7254 1.27803 12.6004 1.27803C11.7566 1.27803 10.9973 1.53115 10.3504 2.06553C10.0691 2.2624 9.84414 2.51553 9.59102 2.79678C9.45039 2.96553 9.22539 3.07803 9.00039 3.07803C8.77539 3.07803 8.55039 2.96553 8.40977 2.79678C8.18477 2.51553 7.93164 2.2624 7.65039 2.06553C7.00352 1.55928 6.24414 1.27803 5.40039 1.27803Z" fill="#212B36"/>
</svg>
