<svg width="108" height="18" viewBox="0 0 108 18" fill="none" xmlns="http://www.w3.org/2000/svg">
<g clip-path="url(#clip0_121_55867)">
<path d="M16.7908 6.72187L11.7002 5.93437L9.39395 1.09687C9.2252 0.759375 8.7752 0.759375 8.60645 1.09687L6.3002 5.9625L1.2377 6.72187C0.872074 6.77812 0.731449 7.25625 1.0127 7.50937L4.69707 11.3062L3.8252 16.6219C3.76895 16.9875 4.13457 17.2969 4.47207 17.0719L9.05645 14.5687L13.6127 17.0719C13.9221 17.2406 14.3158 16.9594 14.2314 16.6219L13.3596 11.3062L17.0439 7.50937C17.2689 7.25625 17.1564 6.77812 16.7908 6.72187Z" fill="#FFA645"/>
</g>
<path d="M39.2908 6.72187L34.2002 5.93437L31.8939 1.09687C31.7252 0.759375 31.2752 0.759375 31.1064 1.09687L28.8002 5.9625L23.7377 6.72187C23.3721 6.77812 23.2314 7.25625 23.5127 7.50937L27.1971 11.3062L26.3252 16.6219C26.2689 16.9875 26.6346 17.2969 26.9721 17.0719L31.5564 14.5687L36.1127 17.0719C36.4221 17.2406 36.8158 16.9594 36.7314 16.6219L35.8596 11.3062L39.5439 7.50937C39.7689 7.25625 39.6564 6.77812 39.2908 6.72187Z" fill="#FFA645"/>
<g clip-path="url(#clip1_121_55867)">
<path d="M61.7908 6.72187L56.7002 5.93437L54.3939 1.09687C54.2252 0.759375 53.7752 0.759375 53.6064 1.09687L51.3002 5.9625L46.2377 6.72187C45.8721 6.77812 45.7314 7.25625 46.0127 7.50937L49.6971 11.3062L48.8252 16.6219C48.7689 16.9875 49.1346 17.2969 49.4721 17.0719L54.0564 14.5687L58.6127 17.0719C58.9221 17.2406 59.3158 16.9594 59.2314 16.6219L58.3596 11.3062L62.0439 7.50937C62.2689 7.25625 62.1564 6.77812 61.7908 6.72187Z" fill="#FFA645"/>
</g>
<path d="M84.2908 6.72187L79.2002 5.93437L76.8939 1.09687C76.7252 0.759375 76.2752 0.759375 76.1064 1.09687L73.8002 5.9625L68.7377 6.72187C68.3721 6.77812 68.2314 7.25625 68.5127 7.50937L72.1971 11.3062L71.3252 16.6219C71.2689 16.9875 71.6346 17.2969 71.9721 17.0719L76.5564 14.5687L81.1127 17.0719C81.4221 17.2406 81.8158 16.9594 81.7314 16.6219L80.8596 11.3062L84.5439 7.50937C84.7689 7.25625 84.6564 6.77812 84.2908 6.72187Z" fill="#FFA645"/>
<g clip-path="url(#clip2_121_55867)">
<path d="M106.791 6.72187L101.7 5.93437L99.3939 1.09687C99.2252 0.759375 98.7752 0.759375 98.6064 1.09687L96.3002 5.9625L91.2377 6.72187C90.8721 6.77812 90.7314 7.25625 91.0127 7.50937L94.6971 11.3062L93.8252 16.6219C93.7689 16.9875 94.1346 17.2969 94.4721 17.0719L99.0564 14.5687L103.613 17.0719C103.922 17.2406 104.316 16.9594 104.231 16.6219L103.36 11.3062L107.044 7.50937C107.269 7.25625 107.156 6.77812 106.791 6.72187Z" fill="#FFA645"/>
</g>
<defs>
<clipPath id="clip0_121_55867">
<rect width="18" height="18" fill="white"/>
</clipPath>
<clipPath id="clip1_121_55867">
<rect width="18" height="18" fill="white" transform="translate(45)"/>
</clipPath>
<clipPath id="clip2_121_55867">
<rect width="18" height="18" fill="white" transform="translate(90)"/>
</clipPath>
</defs>
</svg>
