<?xml version="1.0" encoding="utf-8"?>
<!-- Generator: Adobe Illustrator 24.2.3, SVG Export Plug-In . SVG Version: 6.00 Build 0)  -->
<svg version="1.1" id="Ebene_1" xmlns="http://www.w3.org/2000/svg" xmlns:xlink="http://www.w3.org/1999/xlink" x="0px" y="0px"
	 viewBox="0 0 440.13 89.43" style="enable-background:new 0 0 440.13 89.43;" xml:space="preserve">
<style type="text/css">
	.st0{fill-rule:evenodd;clip-rule:evenodd;fill:#A7BDDE;}
	.st1{fill-rule:evenodd;clip-rule:evenodd;fill:#4F8FCC;}
	.st2{fill-rule:evenodd;clip-rule:evenodd;fill:#0069B4;}
	.st3{fill:#AEC0DF;}
	.st4{fill:#4F8FCC;}
	.st5{fill:#0069B4;}
</style>
<polygon class="st0" points="42.87,11.37 56.27,2.95 71.87,11.36 71.87,29.1 58.48,37.19 58.47,19.95 42.87,11.37 "/>
<polygon class="st1" points="14.14,11.55 27.53,3.12 43.14,11.54 43.14,28.84 29.75,37.37 29.74,20.13 14.14,11.55 "/>
<polygon class="st2" points="29.7,37.17 43.09,28.75 58.7,37.16 58.7,54.46 45.29,62.94 45.29,45.75 29.7,37.17 "/>
<polygon class="st1" points="58.32,36.99 71.71,28.56 87.32,36.98 87.32,54.28 73.87,62.81 73.92,45.35 58.32,36.99 "/>
<polygon class="st1" points="16.47,63.13 29.87,54.5 45.48,62.92 45.48,80.22 32.03,88.75 32.07,71.51 16.47,63.13 "/>
<polygon class="st0" points="45.03,62.8 58.43,54.37 74.03,62.79 74.03,80.09 60.72,89.43 60.63,71.38 45.03,62.8 "/>
<polygon class="st0" points="0.96,37.35 14.36,28.93 29.97,37.34 29.97,54.64 16.58,63.17 16.56,45.93 0.96,37.35 "/>
<path class="st3" d="M110.98,62.56l-0.08,9.23l0.27,10.34c-0.68,0-1.27,0-1.78,0c-0.57,0-1.2,0-1.9,0c0.25-2.6,0.44-5.59,0.56-8.97
	c0.13-3.38,0.19-6.65,0.19-9.82l-0.13-8.71c0.8,0,1.53,0,2.18,0c0.51,0,1.06,0,1.63,0l5.23,5.82l12.03,13.19v-2.32v-6.56
	l-0.31-10.14c0.38,0,0.7,0,0.95,0s0.55,0,0.91,0h1.77l-0.58,14.87l-0.08,11.28l0.04,1.35c-0.76,0-1.36,0-1.79,0
	c-0.46,0-0.96,0-1.51,0L115.7,67.59l-3.7-4L110.98,62.56z"/>
<path class="st3" d="M137.21,54.63c0.79,0,1.39,0,1.81,0c0.42,0,1.01,0,1.78,0c0.95,0,2.03,0,3.22,0l-0.75,17.78l0.25,9.72h-3.25
	c-0.57,0-1.07,0-1.5,0c-0.43,0-1.1,0-1.99,0l0.63-20.3L137.21,54.63z"/>
<path class="st3" d="M154.61,74.42v4.83c2.54,0,4.28-0.03,5.23-0.08c0.95-0.06,2.32-0.19,4.09-0.42c-0.03,0.3-0.05,0.62-0.08,0.98
	c-0.03,0.35-0.04,0.64-0.04,0.85c0,0.27,0,0.5,0,0.67c0,0.18,0.04,0.47,0.12,0.87l-7.28-0.19l-8.29,0.19l0.38-13.26l-0.25-14.24
	c0.79,0.13,1.63,0.22,2.54,0.28c0.91,0.06,1.84,0.09,2.79,0.09l10.37-0.38c-0.16,0.63-0.24,1.21-0.24,1.74
	c0,0.61,0.08,1.21,0.24,1.81l-9.38-0.49l-0.19,8.69l9.32-0.31c-0.16,0.6-0.24,1.15-0.24,1.65c0,0.55,0.08,1.13,0.24,1.73l-9.32-0.38
	v0.77V74.42z"/>
<path class="st3" d="M167.47,54.63c0.7,0.1,1.26,0.17,1.67,0.2c0.41,0.03,0.91,0.05,1.5,0.05l8.09-0.25c2.63,0,4.69,0.18,6.2,0.53
	c1.5,0.35,2.93,1.04,4.27,2.05c1.34,1.02,2.43,2.47,3.27,4.37c0.84,1.9,1.26,3.93,1.26,6.1c0,4.29-1.4,7.76-4.21,10.43
	c-2.8,2.67-6.36,4.01-10.67,4.01l-7.68-0.19c-0.71,0-1.29,0.01-1.77,0.04c-0.47,0.02-1.12,0.07-1.93,0.15l0.38-14.73L167.47,54.63z
	 M182.61,58.06c-1.33-0.7-3.14-1.06-5.42-1.06l-3.34,0.2l-0.19,11.93l0.19,10.55l2.95,0.13c2.4,0,4.32-0.43,5.76-1.28
	c1.44-0.85,2.46-1.95,3.05-3.29c0.59-1.34,1.01-2.56,1.25-3.65c0.24-1.1,0.36-2.27,0.36-3.51c0-2.41-0.41-4.48-1.22-6.23
	C185.18,60.11,184.05,58.84,182.61,58.06z"/>
<path class="st3" d="M203.28,74.42v4.83c2.54,0,4.28-0.03,5.23-0.08c0.95-0.06,2.32-0.19,4.09-0.42c-0.03,0.3-0.05,0.62-0.08,0.98
	c-0.03,0.35-0.04,0.64-0.04,0.85c0,0.27,0,0.5,0,0.67c0,0.18,0.04,0.47,0.12,0.87l-7.28-0.19l-8.29,0.19l0.38-13.26l-0.25-14.24
	c0.79,0.13,1.63,0.22,2.54,0.28c0.91,0.06,1.84,0.09,2.79,0.09l10.37-0.38c-0.16,0.63-0.24,1.21-0.24,1.74
	c0,0.61,0.08,1.21,0.24,1.81l-9.38-0.49l-0.19,8.69l9.32-0.31c-0.16,0.6-0.24,1.15-0.24,1.65c0,0.55,0.08,1.13,0.24,1.73l-9.32-0.38
	v0.77V74.42z"/>
<path class="st3" d="M216.39,54.63l3.6,0.19l6.35-0.19c2.53,0,4.6,0.54,6.21,1.6c1.6,1.07,2.41,2.84,2.41,5.3
	c0,1.92-0.58,3.45-1.75,4.59c-1.17,1.14-2.74,1.98-4.72,2.52l3.21,5.18l3.58,5.58l1.8,2.85l-4.03-0.13h-3.21l-6.84-12.02
	c-0.14-0.24-0.25-0.4-0.33-0.46c-0.08-0.07-0.12-0.11-0.12-0.14c-0.19,0-0.29,0.18-0.29,0.53l0.13,3.75v4.11l0.21,4.36
	c-1.08-0.08-2.2-0.13-3.33-0.13c-0.52,0-0.96,0-1.34,0c-0.38,0-0.98,0-1.79,0l0.44-5.37V65.2L216.39,54.63z M223.66,56.94h-1.28
	v10.87c2.09,0,3.66-0.45,4.72-1.36c1.06-0.91,1.59-2.4,1.59-4.48C228.7,58.62,227.02,56.94,223.66,56.94z"/>
<path class="st3" d="M248.01,56.63c-1.22,0-2.23,0.34-3.05,1.02c-0.81,0.68-1.22,1.54-1.22,2.6c0,1.52,0.99,2.84,2.96,3.98
	c1.98,1.14,3.92,2.25,5.85,3.33c2.08,1.6,3.13,3.64,3.13,6.13c0,2.76-0.95,4.94-2.84,6.54c-1.9,1.6-4.47,2.4-7.72,2.4
	c-1.3,0-2.44-0.12-3.41-0.37c-0.98-0.24-2.05-0.69-3.21-1.34c0.57-1.76,0.97-3.42,1.19-4.98l0.88,0.06c0.27,1.33,0.9,2.38,1.9,3.15
	c1,0.77,2.24,1.16,3.72,1.16c1.35,0,2.47-0.39,3.36-1.18c0.89-0.79,1.34-1.76,1.34-2.93c0-1.54-0.99-2.89-2.98-4.04
	c-1.99-1.15-3.92-2.28-5.82-3.39c-2.05-1.6-3.08-3.66-3.08-6.18c0-2.49,0.83-4.5,2.5-6.01c1.66-1.52,3.86-2.28,6.6-2.28
	c2.49,0,4.7,0.64,6.62,1.91c-0.35,0.73-0.62,1.42-0.79,2.07c-0.18,0.64-0.36,1.36-0.55,2.15h-0.69c-0.38-1.24-0.97-2.19-1.77-2.84
	C250.11,56.95,249.15,56.63,248.01,56.63z"/>
<path class="st3" d="M278.71,73.62c0.89,2.31,1.56,3.99,2.01,5.07c0.45,1.07,0.94,2.11,1.48,3.11v0.33c-0.46,0-0.9,0.01-1.32,0.01
	c-0.42,0-1.06,0-1.92,0h-0.49c-0.51,0-0.97,0-1.36,0c-0.39,0-0.97-0.01-1.72-0.01c-0.44-1.65-0.86-3.06-1.25-4.23
	c-0.4-1.17-0.88-2.45-1.46-3.83l-4.62-0.12l-4.83,0.12c-1.03,2.46-1.96,5.14-2.79,8.06c-0.35,0.01-0.64,0.01-0.89,0.01
	c-0.24,0-0.58,0-1.01,0c-0.56,0-1.18-0.01-1.85-0.02v-0.29c1.93-4.01,3.91-8.46,5.94-13.34c2.04-4.88,3.87-9.55,5.5-14
	c0.22,0.03,0.55,0.06,1,0.09c0.45,0.03,0.69,0.05,0.71,0.05c0.49,0,0.94-0.05,1.35-0.14l2.39,6.27L278.71,73.62z M265.16,71.55h3.23
	l3.31-0.04l-3.57-9.4l-3.87,9.4L265.16,71.55z"/>
<path class="st3" d="M298.93,56.63c-2.71,0-4.94,1.11-6.69,3.32c-1.75,2.21-2.62,5.04-2.62,8.49c0,3.66,0.83,6.56,2.5,8.69
	c1.67,2.13,3.92,3.19,6.77,3.19c1.46,0,2.75-0.22,3.86-0.66c1.11-0.44,2.36-1.22,3.74-2.34l0.47,0.25c-0.22,0.52-0.4,1.02-0.54,1.51
	c-0.14,0.49-0.3,1.13-0.49,1.92c-2.17,1.09-4.69,1.63-7.56,1.63c-2.06,0-4.01-0.27-5.85-0.81c-1.84-0.54-3.9-1.66-6.18-3.35
	c-2.28-1.69-3.41-5.05-3.41-10.06c0-4.31,1.45-7.77,4.34-10.37c2.89-2.6,6.77-3.9,11.62-3.9c2.9,0,5.76,0.66,8.58,1.98
	c-0.19,0.7-0.38,1.44-0.57,2.21c-0.19,0.77-0.33,1.48-0.41,2.13h-0.57C304.22,57.9,301.89,56.63,298.93,56.63z"/>
<path class="st3" d="M310.19,54.63c1.37,0,2.52,0,3.46,0h0.49c0.49,0,0.97,0,1.42,0c0.45,0,0.87,0,1.25,0l-0.31,5.61v4.23v1.22
	l6.68,0.16l5.7-0.16v-1.3l-0.31-9.76c0.68,0,1.22,0,1.63,0s0.96,0,1.67,0h0.49c0.6,0,1.13,0,1.61,0c0.48,0,0.9,0,1.29,0
	c-0.2,2.36-0.33,5.04-0.4,8.03c-0.07,3-0.1,6.11-0.1,9.34l0.31,10.13c-0.59,0-1.16,0-1.7,0c-0.54,0-1.28,0-2.23,0
	c-0.54,0-0.96,0-1.26,0c-0.3,0-0.8,0-1.5,0l0.5-13.25l-6.31-0.12l-6.07,0.12v4.47l0.31,8.78c-0.63,0-1.12,0-1.46,0s-0.92,0-1.74,0
	c-0.55,0-1.03,0-1.44,0c-0.41,0-1.14,0-2.17,0l0.5-15.38L310.19,54.63z"/>
<path class="st3" d="M347.99,56.63c-1.22,0-2.23,0.34-3.05,1.02c-0.81,0.68-1.22,1.54-1.22,2.6c0,1.52,0.99,2.84,2.96,3.98
	c1.98,1.14,3.92,2.25,5.85,3.33c2.08,1.6,3.13,3.64,3.13,6.13c0,2.76-0.95,4.94-2.84,6.54c-1.9,1.6-4.47,2.4-7.72,2.4
	c-1.3,0-2.44-0.12-3.41-0.37c-0.98-0.24-2.05-0.69-3.21-1.34c0.57-1.76,0.97-3.42,1.19-4.98l0.88,0.06c0.27,1.33,0.9,2.38,1.9,3.15
	c1,0.77,2.24,1.16,3.72,1.16c1.35,0,2.47-0.39,3.36-1.18c0.89-0.79,1.34-1.76,1.34-2.93c0-1.54-0.99-2.89-2.98-4.04
	c-1.99-1.15-3.92-2.28-5.82-3.39c-2.05-1.6-3.08-3.66-3.08-6.18c0-2.49,0.83-4.5,2.5-6.01c1.67-1.52,3.86-2.28,6.6-2.28
	c2.49,0,4.7,0.64,6.62,1.91c-0.35,0.73-0.62,1.42-0.79,2.07c-0.18,0.64-0.36,1.36-0.55,2.15h-0.69c-0.38-1.24-0.97-2.19-1.77-2.84
	C350.1,56.95,349.13,56.63,347.99,56.63z"/>
<path class="st3" d="M365.18,74.42v4.83c2.54,0,4.28-0.03,5.23-0.08c0.95-0.06,2.32-0.19,4.09-0.42c-0.03,0.3-0.05,0.62-0.08,0.98
	c-0.03,0.35-0.04,0.64-0.04,0.85c0,0.27,0,0.5,0,0.67c0,0.18,0.04,0.47,0.12,0.87l-7.28-0.19l-8.29,0.19l0.38-13.26l-0.25-14.24
	c0.79,0.13,1.63,0.22,2.54,0.28s1.84,0.09,2.79,0.09l10.37-0.38c-0.16,0.63-0.24,1.21-0.24,1.74c0,0.61,0.08,1.21,0.24,1.81
	l-9.38-0.49l-0.19,8.69l9.32-0.31c-0.16,0.6-0.24,1.15-0.24,1.65c0,0.55,0.08,1.13,0.24,1.73l-9.32-0.38v0.77V74.42z"/>
<path class="st3" d="M381.6,62.56l-0.08,9.23l0.27,10.34c-0.68,0-1.27,0-1.78,0c-0.57,0-1.2,0-1.9,0c0.25-2.6,0.44-5.59,0.56-8.97
	c0.13-3.38,0.19-6.65,0.19-9.82l-0.13-8.71c0.8,0,1.53,0,2.18,0c0.51,0,1.06,0,1.63,0l5.23,5.82l12.03,13.19v-2.32v-6.56
	l-0.31-10.14c0.38,0,0.7,0,0.95,0c0.25,0,0.55,0,0.91,0h1.77l-0.58,14.87l-0.08,11.28l0.04,1.35c-0.76,0-1.36,0-1.79,0
	c-0.46,0-0.96,0-1.51,0l-12.86-14.54l-3.7-4L381.6,62.56z"/>
<g>
	<path class="st4" d="M128.06,30.44c0,1.54-0.4,2.95-1.2,4.22c-0.8,1.27-1.89,2.2-3.28,2.78c-1.38,0.58-3.3,0.87-5.74,0.87
		l-5.58-0.19c-0.65,0-1.21,0.01-1.69,0.04c-0.47,0.02-1.07,0.07-1.77,0.15c0.1-1.08,0.18-2.01,0.23-2.77
		c0.05-0.76,0.08-1.82,0.08-3.17l0.13-9.84l-0.31-11.72c0.79,0.1,1.43,0.17,1.94,0.2c0.5,0.03,1.15,0.05,1.94,0.05l5.42-0.25
		c2.69,0,4.9,0.43,6.62,1.28c1.72,0.86,2.59,2.51,2.59,4.95c0,1.63-0.6,3.03-1.79,4.2c-1.19,1.17-2.82,1.93-4.88,2.28v0.37
		c2.04,0,3.76,0.59,5.18,1.77S128.06,28.43,128.06,30.44z M115,22.82c0.33,0,0.68,0,1.06,0c1.71,0,3.03-0.45,3.97-1.34
		c0.94-0.9,1.41-2.17,1.41-3.83c0-2.97-1.6-4.45-4.81-4.45h-1.51L115,17.5V22.82z M115,30.9v5.17c0.65,0.08,1.14,0.12,1.47,0.12
		c3.48,0,5.22-1.82,5.22-5.46c0-3.78-1.82-5.66-5.46-5.66c-0.44,0-0.84,0-1.22,0v0.94V30.9z"/>
	<path class="st4" d="M150.85,29.81c0.89,2.31,1.56,3.99,2.01,5.07c0.45,1.07,0.94,2.11,1.48,3.11v0.33c-0.46,0-0.9,0.01-1.32,0.01
		c-0.42,0-1.06,0-1.92,0h-0.49c-0.51,0-0.97,0-1.36,0c-0.39,0-0.97-0.01-1.72-0.01c-0.44-1.65-0.86-3.06-1.25-4.23
		c-0.4-1.17-0.88-2.45-1.46-3.83l-4.62-0.12l-4.83,0.12c-1.03,2.46-1.96,5.14-2.79,8.06c-0.35,0.01-0.64,0.01-0.89,0.01
		c-0.24,0-0.58,0-1.01,0c-0.56,0-1.18-0.01-1.85-0.02v-0.29c1.93-4.01,3.91-8.46,5.94-13.34c2.04-4.88,3.87-9.55,5.5-14
		c0.22,0.03,0.55,0.06,1,0.09c0.45,0.03,0.69,0.05,0.71,0.05c0.49,0,0.94-0.05,1.35-0.14l2.39,6.27L150.85,29.81z M137.31,27.74
		h3.23l3.31-0.04l-3.57-9.4l-3.87,9.4L137.31,27.74z"/>
</g>
<g>
	<path class="st4" d="M157.15,10.82c0.7,0,1.26,0,1.68,0s0.98,0,1.68,0c0.49,0,0.94,0,1.36,0c0.42,0,1.03,0,1.84,0l-0.38,6.47
		l-0.12,6.55c0,3.83,0.42,6.83,1.26,9.01c0.84,2.18,2.85,3.28,6.02,3.28c1.71,0,3.17-0.44,4.38-1.32c1.21-0.88,2.01-1.99,2.42-3.32
		c0.41-1.33,0.65-2.6,0.73-3.8c0.08-1.21,0.12-3.59,0.12-7.14l-0.25-9.73c0.38,0,0.69,0,0.92,0c0.23,0,0.52,0,0.88,0
		c0.71,0,1.44,0,2.2,0l-0.5,12.96c0,2.57-0.08,4.44-0.24,5.61c-0.16,1.17-0.58,2.52-1.26,4.06c-0.68,1.54-2,2.83-3.96,3.84
		c-1.96,1.01-4.12,1.52-6.47,1.52c-2.6,0-4.87-0.45-6.82-1.34c-1.95-0.89-3.23-1.96-3.85-3.19c-0.62-1.23-1.03-2.36-1.22-3.39
		c-0.19-1.03-0.28-2.36-0.28-3.98l0.04-0.89v-5.57L157.15,10.82z"/>
	<path class="st4" d="M202.34,12.75c-3.28,0-5.87,1.11-7.77,3.33c-1.9,2.22-2.85,5.25-2.85,9.07c0,3.5,0.87,6.26,2.61,8.3
		c1.74,2.03,4.12,3.05,7.14,3.05c1.69,0,3.21-0.26,4.57-0.79v-3.86c0-2.05-0.08-4.08-0.25-6.1c0.7,0,1.24,0,1.61,0
		c0.38,0,0.89,0,1.53,0h3.15c-0.12,0.83-0.21,1.69-0.27,2.59c-0.06,0.9-0.09,1.96-0.09,3.17l0.19,5.51
		c-3.58,0.79-6.01,1.28-7.3,1.48c-1.29,0.2-2.57,0.3-3.84,0.3c-4.72,0-8.5-1.21-11.34-3.62c-2.85-2.41-4.27-5.64-4.27-9.67
		c0-4.8,1.52-8.51,4.57-11.14c3.05-2.63,7.04-3.94,11.97-3.94c2.06,0,3.73,0.15,5.02,0.45c1.29,0.3,2.83,0.91,4.62,1.83
		c-0.46,1.21-0.81,2.52-1.06,3.92h-0.5c-0.92-1.27-2.02-2.23-3.29-2.89C205.21,13.09,203.83,12.75,202.34,12.75z"/>
	<path class="st4" d="M222.15,30.61v4.83c2.54,0,4.28-0.03,5.23-0.08c0.95-0.06,2.32-0.19,4.09-0.42c-0.03,0.3-0.05,0.62-0.08,0.98
		c-0.03,0.35-0.04,0.64-0.04,0.85c0,0.27,0,0.5,0,0.67c0,0.18,0.04,0.47,0.12,0.87l-7.28-0.19l-8.29,0.19l0.38-13.26l-0.25-14.24
		c0.79,0.13,1.63,0.22,2.54,0.28s1.84,0.09,2.79,0.09l10.37-0.38c-0.16,0.63-0.24,1.21-0.24,1.74c0,0.61,0.08,1.21,0.24,1.81
		l-9.38-0.49l-0.19,8.69l9.32-0.31c-0.16,0.6-0.24,1.15-0.24,1.65c0,0.55,0.08,1.13,0.24,1.73l-9.32-0.38v0.77V30.61z"/>
	<path class="st4" d="M261.76,38.32c-0.35,0.01-0.65,0.01-0.9,0.01c-0.24,0-0.6,0-1.06,0c-0.68,0-1.41-0.01-2.2-0.02l-3.95-12.65
		l-2.4-6.92l-2.67,7.24c-0.76,2.03-1.54,4.16-2.35,6.37c-0.81,2.21-1.46,4.2-1.94,5.96c-0.41,0.01-0.74,0.01-1,0.01
		c-0.26,0-0.62,0-1.08,0c-0.63,0-1.32-0.01-2.08-0.02l-3.22-11.63l-2.2-7.36l-1.87-6.1c-0.19-0.54-0.35-1-0.47-1.38
		c-0.12-0.38-0.18-0.72-0.18-1.02c0.3,0,0.73,0.01,1.31,0.01c0.57,0,1.16,0.01,1.75,0.01h0.45c0.54,0,1.07,0,1.59-0.01
		c0.52,0,1.01-0.01,1.47-0.01l3.38,13.19l1.91,6.96l0.36-1.06l4.09-11.56l1.9-5.7l0.61-1.83c0.81,0.01,1.48,0.02,2.03,0.02
		c0.24,0,0.5,0,0.77,0c0.27,0,0.66-0.01,1.17-0.01l2.14,7.03l4.36,12.93l0.6-1.99l1.69-5.16c0.72-2.11,1.34-4.13,1.85-6.04
		c0.51-1.91,1.07-4.17,1.69-6.77c0.44,0.01,0.76,0.01,0.98,0.01c0.22,0,0.52,0,0.9,0c0.24,0,0.5,0,0.75,0
		c0.26,0,0.63-0.01,1.12-0.01v0.37c-0.95,2.47-2.07,5.46-3.38,8.97c-1.3,3.51-2.47,6.84-3.52,9.99
		C263.14,33.29,262.33,36.01,261.76,38.32z"/>
	<path class="st4" d="M278.63,30.61v4.83c2.54,0,4.28-0.03,5.23-0.08c0.95-0.06,2.32-0.19,4.09-0.42c-0.03,0.3-0.05,0.62-0.08,0.98
		c-0.03,0.35-0.04,0.64-0.04,0.85c0,0.27,0,0.5,0,0.67c0,0.18,0.04,0.47,0.12,0.87l-7.28-0.19l-8.29,0.19l0.38-13.26l-0.25-14.24
		c0.79,0.13,1.63,0.22,2.54,0.28c0.91,0.06,1.84,0.09,2.79,0.09l10.37-0.38c-0.16,0.63-0.24,1.21-0.24,1.74
		c0,0.61,0.08,1.21,0.24,1.81l-9.38-0.49l-0.19,8.69l9.32-0.31c-0.16,0.6-0.24,1.15-0.24,1.65c0,0.55,0.08,1.13,0.24,1.73
		l-9.32-0.38v0.77V30.61z"/>
	<path class="st4" d="M291.74,10.82l3.6,0.19l6.35-0.19c2.53,0,4.6,0.54,6.21,1.6c1.6,1.07,2.41,2.84,2.41,5.3
		c0,1.92-0.58,3.45-1.75,4.59c-1.17,1.14-2.74,1.98-4.72,2.52l3.21,5.18l3.58,5.58l1.8,2.85l-4.03-0.13h-3.21l-6.84-12.02
		c-0.14-0.24-0.25-0.4-0.33-0.46c-0.08-0.07-0.12-0.11-0.12-0.14c-0.19,0-0.29,0.18-0.29,0.53l0.13,3.75v4.11l0.21,4.36
		c-1.08-0.08-2.2-0.13-3.33-0.13c-0.52,0-0.96,0-1.34,0c-0.38,0-0.98,0-1.79,0l0.44-5.37V21.39L291.74,10.82z M299.02,13.13h-1.28
		V24c2.09,0,3.67-0.45,4.72-1.36c1.06-0.91,1.59-2.4,1.59-4.48C304.05,14.81,302.37,13.13,299.02,13.13z"/>
	<path class="st4" d="M334.16,30.44c0,1.54-0.4,2.95-1.2,4.22c-0.8,1.27-1.89,2.2-3.28,2.78c-1.38,0.58-3.3,0.87-5.74,0.87
		l-5.58-0.19c-0.65,0-1.21,0.01-1.69,0.04c-0.47,0.02-1.07,0.07-1.77,0.15c0.1-1.08,0.18-2.01,0.23-2.77
		c0.05-0.76,0.08-1.82,0.08-3.17l0.13-9.84l-0.31-11.72c0.79,0.1,1.43,0.17,1.94,0.2c0.5,0.03,1.15,0.05,1.94,0.05l5.42-0.25
		c2.69,0,4.9,0.43,6.62,1.28c1.72,0.86,2.59,2.51,2.59,4.95c0,1.63-0.6,3.03-1.79,4.2c-1.19,1.17-2.82,1.93-4.88,2.28v0.37
		c2.04,0,3.76,0.59,5.18,1.77C333.45,26.84,334.16,28.43,334.16,30.44z M321.1,22.82c0.33,0,0.68,0,1.06,0
		c1.71,0,3.03-0.45,3.97-1.34s1.41-2.17,1.41-3.83c0-2.97-1.6-4.45-4.81-4.45h-1.51l-0.13,4.3V22.82z M321.1,30.9v5.17
		c0.65,0.08,1.14,0.12,1.47,0.12c3.48,0,5.22-1.82,5.22-5.46c0-3.78-1.82-5.66-5.46-5.66c-0.44,0-0.84,0-1.22,0v0.94V30.9z"/>
	<path class="st4" d="M343.89,30.61v4.83c2.54,0,4.28-0.03,5.23-0.08c0.95-0.06,2.32-0.19,4.09-0.42c-0.03,0.3-0.05,0.62-0.08,0.98
		c-0.03,0.35-0.04,0.64-0.04,0.85c0,0.27,0,0.5,0,0.67c0,0.18,0.04,0.47,0.12,0.87l-7.28-0.19l-8.29,0.19l0.38-13.26l-0.25-14.24
		c0.79,0.13,1.63,0.22,2.54,0.28s1.84,0.09,2.79,0.09l10.37-0.38c-0.16,0.63-0.24,1.21-0.24,1.74c0,0.61,0.08,1.21,0.24,1.81
		l-9.38-0.49l-0.19,8.69l9.32-0.31c-0.16,0.6-0.24,1.15-0.24,1.65c0,0.55,0.08,1.13,0.24,1.73l-9.32-0.38v0.77V30.61z"/>
</g>
<path class="st4" d="M365.69,29.94h-9.23v-4.25h9.23V29.94z"/>
<path class="st5" d="M289.65,39.21l-8.62,21.28c-0.38-0.08-0.67-0.13-0.88-0.15c-0.2-0.03-0.51-0.04-0.91-0.04
	c-0.52,0-1.08,0.06-1.71,0.19l-4.19-11.15L270.02,41l-3.17-7.73v-0.29c0.81,0,1.57,0,2.28,0c0.71,0,1.13,0,1.26,0
	c0.98,0,2.13,0,3.46,0c0.6,2.11,1.31,4.34,2.14,6.68c0.83,2.34,1.67,4.61,2.51,6.82c0.84,2.21,1.7,4.39,2.57,6.55l7.57-20.05
	c0.35,0,0.64,0,0.89,0c0.24,0,0.56,0,0.97,0c0.51,0,1.09,0,1.73,0v0.29L289.65,39.21z"/>
<g>
	<path class="st5" d="M300.25,52.78v4.83c2.54,0,4.28-0.03,5.23-0.08c0.95-0.06,2.32-0.19,4.09-0.42c-0.03,0.3-0.05,0.62-0.08,0.98
		c-0.03,0.35-0.04,0.64-0.04,0.85c0,0.27,0,0.5,0,0.67c0,0.18,0.04,0.47,0.12,0.87l-7.28-0.19L294,60.49l0.38-13.26l-0.25-14.24
		c0.79,0.13,1.63,0.22,2.54,0.28s1.84,0.09,2.79,0.09l10.37-0.38c-0.16,0.63-0.24,1.21-0.24,1.74c0,0.61,0.08,1.21,0.24,1.81
		l-9.38-0.49l-0.19,8.69l9.32-0.31c-0.16,0.6-0.24,1.15-0.24,1.65c0,0.55,0.08,1.13,0.24,1.73l-9.32-0.38v0.77V52.78z"/>
	<path class="st5" d="M313.36,32.99l3.6,0.19l6.35-0.19c2.53,0,4.6,0.54,6.21,1.6c1.6,1.07,2.41,2.84,2.41,5.3
		c0,1.92-0.58,3.45-1.75,4.59c-1.17,1.14-2.74,1.98-4.72,2.52l3.21,5.18l3.58,5.58l1.8,2.85l-4.03-0.13h-3.21l-6.84-12.02
		c-0.14-0.24-0.25-0.4-0.33-0.46c-0.08-0.07-0.12-0.11-0.12-0.14c-0.19,0-0.29,0.18-0.29,0.53l0.13,3.75v4.11l0.21,4.36
		c-1.08-0.08-2.2-0.13-3.33-0.13c-0.52,0-0.96,0-1.34,0c-0.38,0-0.98,0-1.79,0l0.44-5.37V43.56L313.36,32.99z M320.64,35.3h-1.28
		v10.88c2.09,0,3.67-0.45,4.72-1.36c1.06-0.91,1.59-2.4,1.59-4.48C325.67,36.98,324,35.3,320.64,35.3z"/>
	<path class="st5" d="M355.78,52.61c0,1.54-0.4,2.95-1.2,4.22c-0.8,1.27-1.89,2.2-3.28,2.78c-1.38,0.58-3.3,0.87-5.74,0.87
		l-5.58-0.19c-0.65,0-1.21,0.01-1.69,0.04c-0.47,0.02-1.07,0.07-1.77,0.15c0.1-1.08,0.18-2.01,0.23-2.77
		c0.05-0.76,0.08-1.82,0.08-3.17l0.13-9.84l-0.31-11.72c0.79,0.1,1.43,0.17,1.94,0.2c0.5,0.03,1.15,0.05,1.94,0.05l5.42-0.25
		c2.69,0,4.9,0.43,6.62,1.28c1.72,0.86,2.59,2.51,2.59,4.95c0,1.63-0.6,3.03-1.79,4.2c-1.19,1.17-2.82,1.93-4.88,2.28v0.37
		c2.04,0,3.76,0.59,5.18,1.77C355.07,49.01,355.78,50.61,355.78,52.61z M342.72,44.99c0.33,0,0.68,0,1.06,0
		c1.71,0,3.03-0.45,3.97-1.34s1.41-2.17,1.41-3.83c0-2.97-1.6-4.45-4.81-4.45h-1.51l-0.13,4.3V44.99z M342.72,53.07v5.17
		c0.65,0.08,1.14,0.12,1.47,0.12c3.48,0,5.22-1.82,5.22-5.46c0-3.78-1.82-5.66-5.46-5.66c-0.44,0-0.84,0-1.22,0v0.94V53.07z"/>
	<path class="st5" d="M379.02,51.98c0.89,2.31,1.56,3.99,2.01,5.07c0.45,1.07,0.94,2.11,1.48,3.11v0.33c-0.46,0-0.9,0.01-1.32,0.01
		c-0.42,0-1.06,0-1.92,0h-0.49c-0.51,0-0.97,0-1.36,0c-0.39,0-0.97-0.01-1.72-0.01c-0.44-1.65-0.86-3.06-1.25-4.23
		c-0.4-1.17-0.88-2.45-1.46-3.83l-4.62-0.12l-4.83,0.12c-1.03,2.46-1.96,5.14-2.79,8.06c-0.35,0.01-0.64,0.01-0.89,0.01
		c-0.24,0-0.58,0-1.01,0c-0.56,0-1.18-0.01-1.85-0.02V60.2c1.93-4.01,3.91-8.46,5.94-13.34c2.04-4.88,3.87-9.55,5.5-14
		c0.22,0.03,0.55,0.06,1,0.09c0.45,0.03,0.69,0.05,0.71,0.05c0.49,0,0.94-0.05,1.35-0.14l2.39,6.27L379.02,51.98z M365.48,49.91
		h3.23l3.31-0.04l-3.57-9.4l-3.87,9.4L365.48,49.91z"/>
	<path class="st5" d="M387.87,40.93l-0.08,9.23l0.27,10.34c-0.68,0-1.27,0-1.78,0c-0.57,0-1.2,0-1.9,0c0.25-2.6,0.44-5.59,0.56-8.97
		c0.13-3.38,0.19-6.65,0.19-9.82l-0.13-8.71c0.8,0,1.53,0,2.18,0c0.51,0,1.06,0,1.63,0l5.23,5.82L406.06,52v-2.32v-6.56l-0.31-10.14
		c0.38,0,0.7,0,0.95,0c0.25,0,0.55,0,0.91,0h1.77l-0.58,14.87l-0.08,11.28l0.04,1.35c-0.76,0-1.36,0-1.79,0c-0.46,0-0.96,0-1.51,0
		l-12.86-14.54l-3.7-4L387.87,40.93z"/>
	<path class="st5" d="M413.66,32.99c0.7,0.1,1.26,0.17,1.67,0.2c0.41,0.03,0.91,0.05,1.5,0.05l8.09-0.25c2.63,0,4.69,0.18,6.2,0.53
		c1.5,0.35,2.93,1.04,4.27,2.05c1.34,1.02,2.43,2.47,3.27,4.37c0.84,1.9,1.26,3.93,1.26,6.1c0,4.29-1.4,7.76-4.21,10.43
		c-2.8,2.67-6.36,4.01-10.67,4.01l-7.68-0.19c-0.71,0-1.29,0.01-1.77,0.04c-0.47,0.02-1.12,0.07-1.93,0.15l0.38-14.73L413.66,32.99z
		 M428.81,36.42c-1.33-0.7-3.14-1.06-5.42-1.06l-3.34,0.2l-0.19,11.93l0.19,10.55l2.95,0.13c2.4,0,4.32-0.43,5.76-1.28
		c1.44-0.85,2.46-1.95,3.05-3.29c0.59-1.34,1.01-2.56,1.25-3.65s0.36-2.27,0.36-3.51c0-2.41-0.41-4.48-1.22-6.23
		C431.37,38.47,430.25,37.2,428.81,36.42z"/>
</g>
</svg>
