<?xml version="1.0" standalone="no"?>
<!DOCTYPE svg PUBLIC "-//W3C//DTD SVG 20010904//EN"
 "http://www.w3.org/TR/2001/REC-SVG-20010904/DTD/svg10.dtd">
<svg version="1.0" xmlns="http://www.w3.org/2000/svg"
 width="1011.000000pt" height="1212.000000pt" viewBox="0 0 1011.000000 1212.000000"
 preserveAspectRatio="xMidYMid meet">

<g transform="translate(0.000000,1212.000000) scale(0.100000,-0.100000)"
fill="#BB452C" stroke="none">
<path d="M3598 10782 c-801 -735 -1938 -1778 -2527 -2317 l-1070 -980 -1
-3742 0 -3743 5055 0 5055 0 0 3743 -1 3742 -1141 1045 c-897 821 -3766 3452
-3888 3566 l-25 23 -1457 -1337z m2614 -1167 c629 -577 1493 -1369 1920 -1760
l777 -710 0 -3022 1 -3023 -2032 0 -2033 0 1843 1843 1842 1842 0 770 -1 770
-2607 -2613 -2607 -2613 -340 1 -340 0 2950 2950 2950 2950 -3478 0 -3477 0 0
-525 0 -525 2180 -2 2180 -3 -2370 -2370 -2370 -2370 1 2970 0 2970 815 745
c448 410 1313 1203 1922 1762 609 560 1112 1016 1118 1015 7 -1 527 -474 1156
-1052z"/>
</g>
</svg>
