<svg width="16" height="8" viewBox="0 0 16 8" fill="none" xmlns="http://www.w3.org/2000/svg">
<path fill-rule="evenodd" clip-rule="evenodd" d="M0.249947 1.42237L6.79505 7.57672L6.80132 7.58248C7.12214 7.87122 7.51003 8 7.89234 8C8.29531 8 8.67847 7.83258 8.98341 7.55814L15.5345 1.42264L15.539 1.41812C15.8326 1.12446 15.9148 0.607154 15.5634 0.255739C15.2711 -0.0365603 14.7572 -0.119319 14.4059 0.226496L7.89234 6.35117L1.36851 0.216817L1.36168 0.210969C1.04167 -0.0633254 0.541712 -0.0646794 0.221294 0.255739L0.21069 0.266343L0.20093 0.27773C-0.0733652 0.597741 -0.0747181 1.0977 0.2457 1.41812L0.249947 1.42237ZM15.3932 0.908576C15.374 0.993437 15.3296 1.07504 15.2629 1.14175L8.72219 7.26758C8.47813 7.48723 8.18526 7.60926 7.89239 7.60926C7.59952 7.60926 7.30666 7.51164 7.0626 7.29199L0.521876 1.14175C0.406459 1.02633 0.369016 0.86636 0.402022 0.722033C0.368916 0.866425 0.406335 1.02652 0.521819 1.142L7.06254 7.29224C7.3066 7.51189 7.59947 7.60951 7.89234 7.60951C8.18521 7.60951 8.47807 7.48748 8.72213 7.26783L15.2629 1.142C15.3296 1.07522 15.374 0.993526 15.3932 0.908576Z" fill="#637381"/>
</svg>
