<?xml version="1.0" encoding="utf-8"?>
<!-- Generator: Adobe Illustrator 16.0.0, SVG Export Plug-In . SVG Version: 6.00 Build 0)  -->
<!DOCTYPE svg PUBLIC "-//W3C//DTD SVG 1.1//EN" "http://www.w3.org/Graphics/SVG/1.1/DTD/svg11.dtd">
<svg version="1.1" id="Layer_1" xmlns="http://www.w3.org/2000/svg" xmlns:xlink="http://www.w3.org/1999/xlink" x="0px" y="0px"
	 width="212.795px" height="220.59px" viewBox="0 0 212.795 220.59" enable-background="new 0 0 212.795 220.59"
	 xml:space="preserve">
<path fill="#80DDFF" d="M136.958,117.604v26.488c0,9.389-3.562,17.815-9.217,23.625c-4.902,5.03-11.372,8.092-18.468,8.092H93.052
	c-7.095,0-13.566-3.062-18.468-8.092c-5.655-5.81-9.217-14.236-9.217-23.625v-26.488c0-23.706,4.641-46.905,13.367-67.982
	c5.754-13.894,13.276-26.861,22.429-38.442c9.152,11.581,16.674,24.549,22.428,38.442
	C132.318,70.698,136.958,93.897,136.958,117.604"/>
<path fill="#10003B" d="M109.273,177.809H93.052c-7.367,0-14.434-3.088-19.901-8.695c-6.217-6.389-9.784-15.508-9.784-25.021
	v-26.488c0-23.613,4.675-47.386,13.52-68.748c5.88-14.201,13.521-27.294,22.707-38.917c0.38-0.479,0.958-0.76,1.569-0.76
	c0.611,0,1.189,0.281,1.569,0.76c9.186,11.624,16.826,24.717,22.706,38.916c8.845,21.361,13.52,45.134,13.52,68.749v26.488
	c0,9.514-3.566,18.633-9.783,25.021C123.707,174.721,116.64,177.809,109.273,177.809 M101.163,14.439
	c-8.262,10.823-15.179,22.903-20.581,35.946c-8.646,20.882-13.215,44.125-13.215,67.218v26.488c0,8.48,3.152,16.583,8.65,22.229
	c4.706,4.828,10.755,7.487,17.035,7.487h16.221c6.28,0,12.329-2.659,17.036-7.488c5.497-5.646,8.649-13.748,8.649-22.229v-26.488
	c0-23.095-4.569-46.339-13.215-67.219C116.342,37.344,109.425,25.264,101.163,14.439"/>
<path fill="#10003B" d="M73.222,119.604c-1.104,0-2-0.896-2-2c0-9.557,0.754-19.17,2.241-28.573
	c0.173-1.092,1.207-1.827,2.288-1.662c1.091,0.173,1.836,1.196,1.663,2.287c-1.455,9.197-2.192,18.601-2.192,27.948
	C75.222,118.708,74.326,119.604,73.222,119.604"/>
<path fill="#10003B" d="M73.222,146.092c-1.104,0-2-0.896-2-2v-13.819c0-1.104,0.896-2,2-2s2,0.896,2,2v13.819
	C75.222,145.196,74.326,146.092,73.222,146.092"/>
<path fill="#52C0F5" d="M116.871,89.343c0,8.675-7.033,15.708-15.708,15.708c-8.676,0-15.708-7.033-15.708-15.708
	s7.032-15.708,15.708-15.708C109.838,73.635,116.871,80.668,116.871,89.343"/>
<path fill="#10003B" d="M101.163,107.051c-9.765,0-17.708-7.943-17.708-17.708s7.943-17.708,17.708-17.708
	c9.765,0,17.708,7.943,17.708,17.708S110.928,107.051,101.163,107.051 M101.163,75.635c-7.559,0-13.708,6.149-13.708,13.708
	c0,7.56,6.149,13.708,13.708,13.708c7.559,0,13.708-6.148,13.708-13.708C114.871,81.784,108.722,75.635,101.163,75.635"/>
<path fill="#FE7058" d="M123.589,49.62H78.736c5.751-13.893,13.275-26.859,22.427-38.44
	C110.316,22.761,117.838,35.728,123.589,49.62"/>
<path fill="#10003B" d="M123.589,51.62H78.737c-0.668,0-1.292-0.333-1.664-0.889c-0.371-0.555-0.44-1.258-0.184-1.876
	c5.875-14.193,13.515-27.287,22.705-38.917c0.76-0.959,2.379-0.959,3.139,0c9.189,11.628,16.828,24.722,22.704,38.917
	c0.256,0.618,0.186,1.321-0.185,1.876C124.881,51.287,124.257,51.62,123.589,51.62 M81.758,47.62h38.81
	c-5.213-11.981-11.728-23.123-19.405-33.181C93.486,24.499,86.971,35.64,81.758,47.62"/>
<path fill="#FFD161" d="M127.741,167.717l9.063,30.199l-22.841-10.099l-12.8,25.577l-12.801-25.577l-22.841,10.099l9.063-30.199
	c4.902,5.029,11.373,8.092,18.468,8.092h16.221C116.369,175.809,122.839,172.746,127.741,167.717"/>
<path fill="#10003B" d="M101.164,215.395c-0.757,0-1.449-0.428-1.788-1.104l-11.949-23.873l-21.096,9.327
	c-0.713,0.318-1.547,0.187-2.132-0.328c-0.586-0.518-0.816-1.328-0.593-2.076l9.063-30.199c0.204-0.679,0.752-1.198,1.439-1.367
	c0.69-0.171,1.414,0.039,1.909,0.546c4.706,4.829,10.756,7.488,17.035,7.488h16.222c6.279,0,12.329-2.659,17.035-7.488
	c0.495-0.508,1.221-0.717,1.909-0.546c0.688,0.169,1.236,0.688,1.44,1.367l9.062,30.199c0.224,0.748-0.006,1.559-0.592,2.076
	c-0.585,0.515-1.418,0.646-2.132,0.328l-21.097-9.327l-11.947,23.873C102.612,214.967,101.92,215.395,101.164,215.395
	 M88.361,185.816c0.735,0,1.44,0.407,1.789,1.104l11.013,22.005l11.011-22.005c0.477-0.954,1.621-1.366,2.597-0.934l18.868,8.344
	l-6.895-22.978c-5.056,4.184-11.154,6.455-17.471,6.455H93.051c-6.317,0-12.415-2.271-17.47-6.455l-6.896,22.978l18.868-8.344
	C87.816,185.872,88.09,185.816,88.361,185.816"/>
<path fill="#FE7058" d="M71.376,163.802H55.399L27.76,187.137l16.086-48.709h21.521v5.664
	C65.367,151.541,67.606,158.392,71.376,163.802"/>
<path fill="#10003B" d="M27.76,189.137c-0.39,0-0.781-0.113-1.12-0.343c-0.742-0.501-1.06-1.434-0.78-2.284l16.086-48.709
	c0.271-0.819,1.036-1.373,1.9-1.373h21.521c1.105,0,2,0.896,2,2v5.664c0,6.842,1.954,13.262,5.65,18.566
	c0.425,0.611,0.477,1.41,0.132,2.069c-0.345,0.66-1.028,1.074-1.773,1.074H56.131L29.05,188.665
	C28.68,188.978,28.22,189.137,27.76,189.137 M45.291,140.428l-13.412,40.614l22.23-18.769c0.361-0.305,0.818-0.472,1.29-0.472
	h12.388c-2.901-5.294-4.42-11.346-4.42-17.71v-3.664H45.291z"/>
<path fill="#FE7058" d="M131.151,163.802h15.976l27.639,23.335l-16.085-48.709H137.16v5.664
	C137.16,151.541,134.921,158.392,131.151,163.802"/>
<path fill="#10003B" d="M174.767,189.137c-0.461,0-0.92-0.159-1.29-0.472l-27.081-22.863h-15.244c-0.745,0-1.428-0.414-1.773-1.074
	c-0.345-0.659-0.293-1.458,0.133-2.069c3.695-5.304,5.648-11.724,5.648-18.566v-5.664c0-1.104,0.895-2,2-2h21.522
	c0.864,0,1.629,0.554,1.9,1.373l16.085,48.709c0.28,0.851-0.038,1.783-0.78,2.284C175.547,189.023,175.156,189.137,174.767,189.137
	 M134.74,161.802h12.387c0.472,0,0.929,0.167,1.29,0.472l22.23,18.769l-13.411-40.614h-18.077v3.664
	C139.159,150.457,137.641,156.509,134.74,161.802"/>
</svg>
