<?xml version="1.0" encoding="UTF-8" standalone="no"?> <svg id="solid" xmlns="http://www.w3.org/2000/svg" viewBox="0 0 64 64"><path d="M44.46,27.948a7.29,7.29,0,0,1,1.26.155l9.162,1.566a22.824,22.824,0,0,0-3.012-9.232l-6.5,6.671A7.229,7.229,0,0,1,44.46,27.948Z"/><path d="M36,32a4,4,0,1,0-4,4A4,4,0,0,0,36,32Zm-6,0a2,2,0,1,1,2,2A2,2,0,0,1,30,32Z"/><path d="M31.99,19.587a7.382,7.382,0,0,1,.782-1.831l4.46-8.149a22.85,22.85,0,0,0-10.51.011l4.494,8.17A7.284,7.284,0,0,1,31.99,19.587Z"/><path d="M27.183,26.477l.923-.681a5.3,5.3,0,0,0,1.377-7.01l-4.735-8.608a23.094,23.094,0,0,0-11.529,8.57l6.836,6.993A5.3,5.3,0,0,0,27.183,26.477Z"/><path d="M36.564,35.885a6.02,6.02,0,0,1-2.219,1.637,7.269,7.269,0,0,1,2.594,1.219A7.268,7.268,0,0,1,36.564,35.885Z"/><path d="M35.883,25.785l.922.681a5.279,5.279,0,0,0,7.1-.723l6.852-7.029a23.092,23.092,0,0,0-11.55-8.551l-4.7,8.587A5.3,5.3,0,0,0,35.883,25.785Z"/><path d="M37.971,31.428A7.263,7.263,0,0,1,39.686,29.5a7.259,7.259,0,0,1-2.547-.577A5.948,5.948,0,0,1,37.971,31.428Z"/><path d="M29.655,37.522a6.016,6.016,0,0,1-2.218-1.636,7.262,7.262,0,0,1-.378,2.854A7.293,7.293,0,0,1,29.655,37.522Z"/><path d="M33.41,26.174a7.237,7.237,0,0,1-1.419-2.7,7.286,7.286,0,0,1-1.412,2.7,5.8,5.8,0,0,1,2.831,0Z"/><path d="M54.993,31.718l-9.652-1.652a5.293,5.293,0,0,0-6.207,3.585l-.34,1.087a5.273,5.273,0,0,0,2.984,6.481l8.887,4.2A22.867,22.867,0,0,0,55,32C55,31.905,54.994,31.812,54.993,31.718Z"/><path d="M39.458,42.178a7.361,7.361,0,0,1,.388,1.737l1.261,9.2a23.111,23.111,0,0,0,8.284-6.09l-8.428-3.982A7.218,7.218,0,0,1,39.458,42.178Z"/><path d="M32.57,39.3H31.43a5.289,5.289,0,0,0-5.284,4.805l-1.334,9.738a22.907,22.907,0,0,0,14.376,0l-1.329-9.7A5.3,5.3,0,0,0,32.57,39.3Z"/><path d="M26.029,31.427a5.935,5.935,0,0,1,.825-2.5,7.225,7.225,0,0,1-2.522.576A7.279,7.279,0,0,1,26.029,31.427Z"/><path d="M32,4A28,28,0,1,0,60,32,28.032,28.032,0,0,0,32,4Zm0,53A25,25,0,1,1,57,32,25.028,25.028,0,0,1,32,57Z"/><path d="M19.505,27.947a7.5,7.5,0,0,1-.907-.836l-6.489-6.637a22.83,22.83,0,0,0-2.991,9.2l9.2-1.575A7.285,7.285,0,0,1,19.505,27.947Z"/><path d="M25.207,34.741l-.342-1.093a5.283,5.283,0,0,0-6.165-3.59L9.007,31.717c0,.1-.007.188-.007.283a22.867,22.867,0,0,0,4.335,13.415l8.848-4.179A5.284,5.284,0,0,0,25.207,34.741Z"/><path d="M14.609,47.026a23.111,23.111,0,0,0,8.284,6.09l1.266-9.242a7.3,7.3,0,0,1,.379-1.7,7.364,7.364,0,0,1-1.54.889Z"/></svg>
